<svg xmlns="http://www.w3.org/2000/svg" width="2040" height="2040" viewBox="0 0 2040 2040" version="1.1"><path d="M 1469.339 194.613 C 1439.810 214.423, 1417.900 232.716, 1408.028 245.802 C 1398.134 258.919, 1392.457 274.471, 1391.346 291.500 C 1390.637 302.370, 1393.339 326.858, 1395.815 332 L 1397.500 335.500 1409 336.118 C 1425.014 336.980, 1523.199 337.134, 1547.807 336.337 L 1568.115 335.679 1569.473 333.052 C 1571.874 328.410, 1574.211 314.832, 1574.733 302.500 C 1576.093 270.368, 1565.506 247.486, 1539.210 225.725 C 1523.040 212.345, 1485.534 186, 1482.654 186 C 1482.392 186, 1476.400 189.876, 1469.339 194.613 M 956.583 585 C 946.254 598.093, 937.151 608.023, 919.085 625.908 C 895.707 649.050, 877.372 664.187, 845.316 686.810 C 835.257 693.908, 783.981 727.866, 774.721 733.561 C 762.103 741.322, 711.866 774.843, 698.907 784.149 C 669.581 805.209, 643.340 828.960, 622.839 853 C 598.613 881.407, 581.262 915.945, 573.857 950.500 C 571.711 960.514, 571.505 963.832, 571.559 987.500 C 571.620 1014.334, 572.208 1019.838, 577.420 1042.309 C 581.048 1057.955, 593.262 1084.651, 604.774 1102.099 C 611.192 1111.826, 626.097 1130.083, 632.385 1135.921 C 635.478 1138.793, 636.985 1138.021, 634.619 1134.777 C 624.256 1120.570, 619.431 1111.165, 614.211 1095 C 609.132 1079.275, 608.348 1076.290, 606.568 1065.915 C 603.554 1048.342, 602.718 1036.578, 603.340 1020.500 C 604.696 985.436, 611.339 958.349, 625.778 929 C 634.861 910.539, 645.588 894.934, 659.803 879.500 C 684.509 852.675, 707.383 834.695, 768.500 794.059 C 804.007 770.450, 816.633 761.759, 832 750.345 C 880.162 714.574, 911.155 684.095, 932.508 651.500 C 946.150 630.677, 953.985 613.937, 960.039 592.680 C 964.491 577.048, 963.897 575.729, 956.583 585 M 1396 741.500 C 1402.307 747.825, 1407.692 753, 1407.967 753 C 1408.242 753, 1403.307 747.825, 1397 741.500 C 1390.693 735.175, 1385.308 730, 1385.033 730 C 1384.758 730, 1389.693 735.175, 1396 741.500 M 954.807 1224.747 C 961.576 1224.921, 972.376 1224.920, 978.807 1224.746 C 985.238 1224.572, 979.700 1224.431, 966.500 1224.431 C 953.300 1224.432, 948.038 1224.574, 954.807 1224.747 M 1074.250 1224.745 C 1079.063 1224.928, 1086.938 1224.928, 1091.750 1224.745 C 1096.563 1224.561, 1092.625 1224.411, 1083 1224.411 C 1073.375 1224.411, 1069.438 1224.561, 1074.250 1224.745 M 1879.789 1350.741 C 1883.248 1350.937, 1888.648 1350.936, 1891.789 1350.738 C 1894.930 1350.540, 1892.100 1350.380, 1885.500 1350.382 C 1878.900 1350.384, 1876.330 1350.546, 1879.789 1350.741 M 35.402 1443 C 35.402 1451.525, 35.556 1455.013, 35.743 1450.750 C 35.931 1446.487, 35.931 1439.513, 35.743 1435.250 C 35.556 1430.987, 35.402 1434.475, 35.402 1443 M 418.423 1452.500 C 418.424 1464.050, 418.570 1468.638, 418.747 1462.696 C 418.924 1456.753, 418.923 1447.303, 418.745 1441.696 C 418.567 1436.088, 418.422 1440.950, 418.423 1452.500 M 2016.428 1479 C 2016.428 1491.375, 2016.571 1496.438, 2016.747 1490.250 C 2016.922 1484.063, 2016.922 1473.938, 2016.747 1467.750 C 2016.571 1461.563, 2016.428 1466.625, 2016.428 1479 M 1606.374 1472.500 C 1606.376 1478.550, 1606.541 1480.896, 1606.740 1477.713 C 1606.939 1474.531, 1606.937 1469.581, 1606.736 1466.713 C 1606.535 1463.846, 1606.372 1466.450, 1606.374 1472.500 M 1027.750 1484.740 C 1031.188 1484.936, 1036.813 1484.936, 1040.250 1484.740 C 1043.688 1484.545, 1040.875 1484.385, 1034 1484.385 C 1027.125 1484.385, 1024.313 1484.545, 1027.750 1484.740 M 673.302 1490.746 C 678.693 1490.926, 687.243 1490.925, 692.302 1490.744 C 697.361 1490.563, 692.950 1490.416, 682.500 1490.417 C 672.050 1490.418, 667.911 1490.566, 673.302 1490.746 M 1198.406 1491.386 C 1198.113 1492.148, 1198.049 1494.735, 1198.262 1497.136 C 1198.647 1501.462, 1198.652 1501.454, 1198.825 1496.264 L 1199 1491.027 1231.750 1490.750 L 1264.500 1490.472 1231.719 1490.236 C 1204.546 1490.040, 1198.846 1490.237, 1198.406 1491.386 M 575.441 1536.500 C 575.442 1552.450, 575.580 1558.835, 575.748 1550.689 C 575.916 1542.543, 575.916 1529.493, 575.747 1521.689 C 575.579 1513.885, 575.441 1520.550, 575.441 1536.500 M 1513.456 1551.500 C 1513.456 1573.500, 1513.588 1582.358, 1513.749 1571.183 C 1513.910 1560.009, 1513.910 1542.009, 1513.749 1531.183 C 1513.587 1520.358, 1513.455 1529.500, 1513.456 1551.500 M 2015.997 1539.202 C 2015.724 1548.939, 2015.849 1556.555, 2016.275 1556.128 C 2016.701 1555.700, 2016.925 1547.734, 2016.772 1538.425 L 2016.495 1521.500 2015.997 1539.202 M 1426.476 1622 C 1426.476 1665.725, 1426.599 1683.612, 1426.750 1661.750 C 1426.900 1639.887, 1426.900 1604.112, 1426.750 1582.250 C 1426.599 1560.388, 1426.476 1578.275, 1426.476 1622 M 646.385 1563 C 646.385 1569.875, 646.545 1572.688, 646.740 1569.250 C 646.936 1565.813, 646.936 1560.188, 646.740 1556.750 C 646.545 1553.313, 646.385 1556.125, 646.385 1563 M 329.459 1595 C 329.459 1618.925, 329.589 1628.713, 329.749 1616.750 C 329.908 1604.787, 329.908 1585.213, 329.749 1573.250 C 329.589 1561.287, 329.459 1571.075, 329.459 1595 M 418.480 1692 C 418.480 1744.525, 418.601 1766.013, 418.750 1739.750 C 418.898 1713.487, 418.898 1670.513, 418.750 1644.250 C 418.601 1617.987, 418.480 1639.475, 418.480 1692 M 796.451 1657.500 C 796.451 1677.300, 796.585 1685.542, 796.748 1675.815 C 796.912 1666.088, 796.912 1649.888, 796.749 1639.815 C 796.586 1629.742, 796.452 1637.700, 796.451 1657.500 M 1150.411 1649 C 1150.411 1658.625, 1150.561 1662.563, 1150.745 1657.750 C 1150.928 1652.938, 1150.928 1645.063, 1150.745 1640.250 C 1150.561 1635.438, 1150.411 1639.375, 1150.411 1649 M 1217.441 1676.500 C 1217.442 1692.450, 1217.580 1698.835, 1217.748 1690.689 C 1217.916 1682.543, 1217.916 1669.493, 1217.747 1661.689 C 1217.579 1653.885, 1217.441 1660.550, 1217.441 1676.500 M 496.450 1698 C 496.450 1716.975, 496.584 1724.737, 496.748 1715.250 C 496.913 1705.763, 496.913 1690.237, 496.748 1680.750 C 496.584 1671.263, 496.450 1679.025, 496.450 1698 M 727.461 1709.500 C 727.461 1734.800, 727.591 1745.007, 727.749 1732.181 C 727.908 1719.356, 727.907 1698.656, 727.749 1686.181 C 727.590 1673.707, 727.461 1684.200, 727.461 1709.500 M 1297.456 1715 C 1297.456 1737.275, 1297.588 1746.388, 1297.749 1735.250 C 1297.910 1724.112, 1297.910 1705.888, 1297.749 1694.750 C 1297.588 1683.612, 1297.456 1692.725, 1297.456 1715 M 576.441 1724 C 576.441 1739.675, 576.579 1746.088, 576.748 1738.250 C 576.917 1730.412, 576.917 1717.588, 576.748 1709.750 C 576.579 1701.912, 576.441 1708.325, 576.441 1724 M 1606.397 1710 C 1606.397 1717.975, 1606.553 1721.237, 1606.743 1717.250 C 1606.932 1713.263, 1606.932 1706.737, 1606.743 1702.750 C 1606.553 1698.763, 1606.397 1702.025, 1606.397 1710 M 2022.428 1751 C 2022.428 1763.375, 2022.571 1768.438, 2022.747 1762.250 C 2022.922 1756.063, 2022.922 1745.938, 2022.747 1739.750 C 2022.571 1733.563, 2022.428 1738.625, 2022.428 1751 M 1844.435 1760 C 1844.435 1774.025, 1844.575 1779.763, 1844.747 1772.750 C 1844.919 1765.737, 1844.919 1754.263, 1844.747 1747.250 C 1844.575 1740.237, 1844.435 1745.975, 1844.435 1760 M 1694.385 1749 C 1694.385 1755.875, 1694.545 1758.688, 1694.740 1755.250 C 1694.936 1751.813, 1694.936 1746.188, 1694.740 1742.750 C 1694.545 1739.313, 1694.385 1742.125, 1694.385 1749 M 1934.402 1776 C 1934.402 1784.525, 1934.556 1788.013, 1934.743 1783.750 C 1934.931 1779.487, 1934.931 1772.513, 1934.743 1768.250 C 1934.556 1763.987, 1934.402 1767.475, 1934.402 1776 M 35.425 1802 C 35.425 1813.825, 35.569 1818.662, 35.746 1812.750 C 35.923 1806.838, 35.923 1797.162, 35.746 1791.250 C 35.569 1785.338, 35.425 1790.175, 35.425 1802 M 124.419 1804 C 124.419 1814.725, 124.566 1819.112, 124.746 1813.750 C 124.925 1808.388, 124.925 1799.612, 124.746 1794.250 C 124.566 1788.888, 124.419 1793.275, 124.419 1804" stroke="none" fill="#f8991f" fill-rule="evenodd"/><path d="M 1484.169 26.314 C 1478.234 29.024, 1469.980 54.470, 1455.566 114.500 C 1454.114 120.550, 1451.864 127.106, 1450.568 129.069 C 1449.272 131.032, 1443.551 136.956, 1437.856 142.234 C 1428.080 151.292, 1422.836 155.758, 1396.442 177.500 C 1380.267 190.824, 1364.281 207.183, 1357.842 217 C 1333.390 254.277, 1326.065 296.462, 1337.667 333.185 C 1338.070 334.460, 1336.693 335.631, 1332.016 337.992 C 1311.954 348.119, 1305.677 367.797, 1315.810 388.790 C 1322.124 401.869, 1340.227 410.826, 1360.628 410.965 C 1363.745 410.986, 1366.207 411.544, 1366.908 412.389 C 1367.782 413.443, 1367.337 425.552, 1365.061 462.639 C 1362.009 512.357, 1359.615 557.842, 1356.043 634 C 1354.946 657.375, 1353.768 681.573, 1353.424 687.773 C 1352.910 697.065, 1353.075 699.465, 1354.364 701.432 C 1355.224 702.745, 1361.007 708.288, 1367.214 713.751 C 1373.421 719.213, 1386.355 731.291, 1395.955 740.591 L 1413.410 757.500 1414.085 754.219 C 1414.765 750.913, 1416.181 728.412, 1418.030 691.500 C 1418.582 680.500, 1420.383 649.675, 1422.033 623 C 1429.047 509.618, 1429.159 507.655, 1432.928 431.167 C 1433.425 421.085, 1434.131 412.535, 1434.496 412.167 C 1435.646 411.012, 1459.175 410.769, 1497.719 411.513 C 1530.897 412.154, 1534.993 412.410, 1535.441 413.866 C 1535.717 414.765, 1536.630 431.475, 1537.471 451 C 1538.312 470.525, 1539.449 496.175, 1539.998 508 C 1540.547 519.825, 1542.353 566.175, 1544.011 611 C 1549.633 762.940, 1552.916 843.076, 1557.490 940 C 1558.281 956.775, 1559.635 990.300, 1560.499 1014.500 C 1561.362 1038.700, 1563.178 1081.122, 1564.534 1108.771 C 1567.377 1166.731, 1567.537 1175.582, 1565.750 1176.262 C 1564.291 1176.818, 1542.795 1174.555, 1535.500 1173.078 C 1532.750 1172.521, 1519.700 1170.923, 1506.500 1169.527 C 1493.300 1168.131, 1479.125 1166.554, 1475 1166.022 C 1465.414 1164.787, 1437.210 1162.370, 1416 1160.964 C 1406.925 1160.363, 1399.087 1159.465, 1398.582 1158.968 C 1397.628 1158.029, 1399.858 1154.556, 1414.658 1133.925 C 1437.881 1101.555, 1452.328 1055.551, 1454.517 1007 C 1456.893 954.320, 1438.696 887.716, 1408.738 839.443 C 1380.383 793.753, 1351.842 764.060, 1296.632 722.813 C 1272.301 704.635, 1262.032 697.778, 1215.500 668.635 C 1133.697 617.403, 1099.841 593.530, 1065.363 562.773 C 1045.858 545.372, 1027.199 524.015, 1014.380 504.418 C 1007.997 494.661, 992.102 463.483, 991.751 460.032 C 991.528 457.840, 992.003 457.471, 996 456.726 C 1016.912 452.829, 1029.346 447.976, 1043.969 438.006 C 1050.119 433.812, 1059.659 424.136, 1065.172 416.500 C 1072.430 406.446, 1080.954 388.554, 1079.282 386.882 C 1078.837 386.437, 1074.754 388.313, 1070.209 391.052 C 1059.099 397.748, 1046.823 402.698, 1037.876 404.091 C 1026.295 405.894, 1007.044 404.748, 998.500 401.747 C 975.268 393.587, 957.012 377.648, 948.035 357.687 C 943.232 347.009, 941.635 338.810, 941.570 324.500 C 941.503 309.795, 943.330 301.953, 949.629 289.914 C 956.662 276.473, 971.242 262.510, 985.800 255.274 C 989.816 253.279, 993.330 251.275, 993.611 250.821 C 995.612 247.583, 971.648 246.964, 957.482 249.888 C 928.891 255.789, 906.391 274.064, 892.962 302.294 C 876.314 337.289, 880.376 377.453, 904.126 412.698 C 911.194 423.185, 927.798 440.088, 936.922 446.082 C 941.004 448.764, 947.416 452.164, 951.172 453.637 C 956.047 455.550, 958 456.825, 958 458.095 C 958 460.772, 944.980 486.068, 937.462 498 C 925.382 517.170, 904.008 541.557, 884.530 558.394 C 864.567 575.649, 861.643 578.016, 841 593.623 C 810.276 616.852, 786.829 632.744, 729 669.537 C 662.967 711.549, 634.546 732.069, 602.625 760.777 C 587.392 774.478, 575.395 787.700, 562.045 805.500 C 535.057 841.484, 519.614 869.560, 506.529 906.430 C 496.387 935.006, 492.120 957.035, 491.283 985.145 C 490.180 1022.147, 496.126 1055.691, 509.693 1089 C 519.477 1113.021, 526.817 1125.608, 543.806 1147.500 C 548.501 1153.550, 552.780 1159.073, 553.314 1159.774 C 554.864 1161.809, 553.350 1162.436, 545.177 1163.147 C 474.100 1169.331, 346.326 1189.803, 258.500 1209.079 C 250.800 1210.769, 242.700 1212.538, 240.500 1213.009 C 228.367 1215.612, 182.073 1226.706, 167 1230.623 C 118.865 1243.133, 73.301 1258.523, 47.368 1271.032 C 31.826 1278.529, 28.073 1282.890, 34.602 1285.865 C 37.905 1287.369, 41.987 1287.298, 57.506 1285.465 C 64.653 1284.621, 83.550 1282.581, 99.500 1280.930 C 115.450 1279.280, 132.325 1277.528, 137 1277.037 C 233.938 1266.854, 301.122 1260.518, 392.500 1252.941 C 406.250 1251.801, 422.450 1250.452, 428.500 1249.943 C 450.488 1248.094, 523.112 1242.948, 547.500 1241.511 C 561.250 1240.701, 577.900 1239.581, 584.500 1239.023 C 591.100 1238.464, 605.275 1237.547, 616 1236.985 C 626.725 1236.423, 646.750 1235.315, 660.500 1234.524 C 778.293 1227.743, 855.395 1225.268, 977.500 1224.349 C 1103.931 1223.398, 1186.347 1225.382, 1339 1233.053 C 1360.725 1234.145, 1385.475 1235.464, 1394 1235.986 C 1425.185 1237.892, 1500.999 1243.045, 1519 1244.482 C 1529.175 1245.295, 1547.175 1246.656, 1559 1247.507 C 1570.825 1248.358, 1590.400 1249.923, 1602.500 1250.984 C 1637.944 1254.091, 1659.482 1255.867, 1675.500 1257.003 C 1683.750 1257.588, 1699.725 1258.945, 1711 1260.019 C 1779.437 1266.539, 1807.960 1269.351, 1827.500 1271.506 C 1839.600 1272.841, 1861.875 1275.066, 1877 1276.451 C 1906.857 1279.186, 1917.930 1280.294, 1963.566 1285.115 C 1981.113 1286.969, 1995.152 1288.006, 1997.284 1287.607 C 2000.739 1286.958, 2004 1284.768, 2004 1283.095 C 2004 1281.322, 1996.566 1275.112, 1991.435 1272.600 C 1977.301 1265.679, 1925.842 1247.901, 1898.542 1240.507 C 1846.987 1226.544, 1777.678 1211.121, 1716.906 1200.087 C 1707.882 1198.449, 1697.350 1196.457, 1693.500 1195.661 C 1689.650 1194.865, 1683.800 1193.898, 1680.500 1193.511 C 1677.200 1193.125, 1668.875 1191.729, 1662 1190.410 C 1655.125 1189.090, 1647.868 1188.008, 1645.872 1188.005 C 1639.363 1187.996, 1639.503 1188.680, 1637.482 1147 C 1636.643 1129.675, 1635.517 1108.300, 1634.982 1099.500 C 1634.446 1090.700, 1632.665 1055.600, 1631.024 1021.500 C 1629.383 987.400, 1627.578 952.300, 1627.012 943.500 C 1626.446 934.700, 1625.318 914, 1624.505 897.500 C 1623.692 881, 1621.908 845, 1620.540 817.500 C 1619.173 790, 1616.908 740.500, 1615.507 707.500 C 1614.106 674.500, 1611.856 623.650, 1610.507 594.500 C 1609.158 565.350, 1607.358 523.725, 1606.506 502 C 1605.654 480.275, 1604.517 454.400, 1603.979 444.500 C 1603.441 434.600, 1603.001 423.080, 1603.001 418.900 L 1603 411.299 1611.750 410.676 C 1621.827 409.957, 1633.954 407.084, 1640.061 403.969 C 1646.446 400.711, 1653.498 393.571, 1656.113 387.714 C 1658.085 383.298, 1658.446 380.817, 1658.471 371.500 C 1658.495 362.314, 1658.146 359.733, 1656.351 355.851 C 1653.635 349.976, 1647.946 344.260, 1640.672 340.098 C 1634.421 336.522, 1633.916 335.038, 1636.045 326.500 C 1636.594 324.300, 1637.057 313.275, 1637.074 302 C 1637.103 282.575, 1636.951 280.897, 1634.181 270 C 1627.350 243.132, 1607.225 210.022, 1583.500 186.617 C 1571.678 174.954, 1549.553 155.108, 1532.258 140.652 C 1523.146 133.036, 1516.832 127.025, 1516.557 125.706 C 1511.226 100.090, 1508.953 89.860, 1504.400 71 C 1494.945 31.830, 1491.030 23.181, 1484.169 26.314 M 1469.339 194.613 C 1439.810 214.423, 1417.900 232.716, 1408.028 245.802 C 1398.134 258.919, 1392.457 274.471, 1391.346 291.500 C 1390.637 302.370, 1393.339 326.858, 1395.815 332 L 1397.500 335.500 1409 336.118 C 1425.014 336.980, 1523.199 337.134, 1547.807 336.337 L 1568.115 335.679 1569.473 333.052 C 1571.874 328.410, 1574.211 314.832, 1574.733 302.500 C 1576.093 270.368, 1565.506 247.486, 1539.210 225.725 C 1523.040 212.345, 1485.534 186, 1482.654 186 C 1482.392 186, 1476.400 189.876, 1469.339 194.613 M 956.583 585 C 946.254 598.093, 937.151 608.023, 919.085 625.908 C 895.707 649.050, 877.372 664.187, 845.316 686.810 C 835.257 693.908, 783.981 727.866, 774.721 733.561 C 762.103 741.322, 711.866 774.843, 698.907 784.149 C 669.581 805.209, 643.340 828.960, 622.839 853 C 598.613 881.407, 581.262 915.945, 573.857 950.500 C 571.711 960.514, 571.505 963.832, 571.559 987.500 C 571.620 1014.334, 572.208 1019.838, 577.420 1042.309 C 581.048 1057.955, 593.262 1084.651, 604.774 1102.099 C 611.192 1111.826, 626.097 1130.083, 632.385 1135.921 C 635.478 1138.793, 636.985 1138.021, 634.619 1134.777 C 624.256 1120.570, 619.431 1111.165, 614.211 1095 C 609.132 1079.275, 608.348 1076.290, 606.568 1065.915 C 603.554 1048.342, 602.718 1036.578, 603.340 1020.500 C 604.696 985.436, 611.339 958.349, 625.778 929 C 634.861 910.539, 645.588 894.934, 659.803 879.500 C 684.509 852.675, 707.383 834.695, 768.500 794.059 C 804.007 770.450, 816.633 761.759, 832 750.345 C 880.162 714.574, 911.155 684.095, 932.508 651.500 C 946.150 630.677, 953.985 613.937, 960.039 592.680 C 964.491 577.048, 963.897 575.729, 956.583 585 M 1530 1351.622 C 1497.501 1355.135, 1471.173 1365.382, 1454.683 1380.938 C 1446.704 1388.465, 1443.693 1392.591, 1438.136 1403.611 C 1431.567 1416.638, 1428.991 1427.121, 1427.965 1445 C 1427.476 1453.525, 1427.059 1525.576, 1427.038 1605.113 C 1427 1748.306, 1427.020 1749.808, 1429.081 1758.113 C 1434.976 1781.878, 1441.265 1793.194, 1457.145 1808.612 C 1473.008 1824.013, 1488.878 1831.933, 1519 1839.479 C 1542.965 1845.483, 1564.900 1848.496, 1592.500 1849.576 C 1647.763 1851.738, 1678.231 1833.983, 1690.550 1792.438 C 1693.005 1784.158, 1693.262 1781.474, 1694.038 1756 C 1695.285 1715.027, 1695.221 1456.364, 1693.960 1444.076 C 1692.446 1429.320, 1688.784 1415.991, 1683.088 1404.500 C 1674.158 1386.485, 1664.089 1376.746, 1643.851 1366.548 C 1631.413 1360.282, 1621.120 1356.967, 1604.500 1353.876 C 1594.040 1351.931, 1588.713 1351.618, 1563 1351.444 C 1546.775 1351.334, 1531.925 1351.414, 1530 1351.622 M 1855.500 1352.519 C 1818.299 1356.399, 1789.605 1370.273, 1775.063 1391.408 C 1766.818 1403.392, 1761.343 1420.773, 1758.810 1443 C 1757.045 1458.492, 1757.093 1526.489, 1758.877 1537 C 1762.079 1555.876, 1767.402 1570.863, 1775.227 1583.033 C 1783.316 1595.615, 1809.656 1620.671, 1833.731 1638.683 C 1879.818 1673.166, 1896.884 1686.885, 1910.004 1700 C 1930.645 1720.635, 1934.363 1732.066, 1934.398 1775 C 1934.424 1807.581, 1932.658 1816.379, 1924.507 1824.296 C 1915.502 1833.042, 1900.946 1834.217, 1881 1827.810 C 1870.791 1824.530, 1865.057 1821.221, 1858.234 1814.669 C 1850.696 1807.431, 1846.475 1799.345, 1845.036 1789.390 C 1844.488 1785.601, 1844.031 1771.625, 1844.020 1758.334 L 1844 1734.168 1840.250 1731.286 C 1838.188 1729.700, 1827.950 1723.273, 1817.500 1717.003 C 1807.050 1710.733, 1793.533 1702.375, 1787.461 1698.430 C 1781.390 1694.484, 1774.558 1690.305, 1772.279 1689.142 C 1770 1687.980, 1767.854 1686.572, 1767.509 1686.014 C 1766.814 1684.890, 1762.721 1684.700, 1759.250 1685.630 L 1757 1686.233 1757.009 1735.867 C 1757.013 1763.165, 1757.457 1790.465, 1757.994 1796.533 C 1760.356 1823.210, 1770.415 1846.184, 1787.055 1862.904 C 1808.879 1884.833, 1839.738 1898.747, 1893.500 1910.899 C 1925.442 1918.118, 1956.968 1919.342, 1974.167 1914.030 C 1982.587 1911.430, 1994.072 1903.917, 2000.644 1896.712 C 2007.569 1889.118, 2014.162 1875.367, 2018.031 1860.447 C 2020.742 1849.994, 2021.247 1845.875, 2022.072 1827.500 C 2022.591 1815.950, 2022.735 1787.375, 2022.393 1764 C 2021.825 1725.194, 2021.569 1720.444, 2019.444 1709.354 C 2015.080 1686.583, 2009.797 1674.672, 1996.395 1657.387 C 1986.241 1644.290, 1966.969 1627.840, 1926 1597.297 C 1870.452 1555.887, 1859.565 1545.989, 1851.427 1529.500 C 1845.928 1518.359, 1844.676 1510.541, 1844.619 1487 C 1844.566 1465.228, 1845.611 1456.684, 1849.200 1449.554 C 1852.091 1443.811, 1857.403 1437.532, 1861.526 1434.984 C 1872.509 1428.196, 1896.260 1427.384, 1911.963 1433.259 C 1919.168 1435.955, 1927.006 1443.704, 1929.412 1450.508 C 1930.812 1454.467, 1931.393 1461.291, 1932.223 1483.488 C 1933.112 1507.269, 1933.513 1511.660, 1934.885 1512.697 C 1935.773 1513.369, 1941.351 1516.749, 1947.281 1520.209 C 1957.864 1526.385, 1971.112 1534.311, 1982 1540.981 C 1985.025 1542.834, 1992.985 1547.452, 1999.689 1551.243 C 2016.482 1560.738, 2015.937 1561.152, 2016.206 1538.715 C 2016.600 1505.827, 2015.862 1445.432, 2014.921 1433.619 C 2013.411 1414.642, 2010.117 1403.679, 2002.287 1391.568 C 1994.272 1379.172, 1979.366 1366.935, 1966.207 1361.949 C 1956.093 1358.117, 1938.830 1354.215, 1924.786 1352.587 C 1908.444 1350.693, 1873.339 1350.658, 1855.500 1352.519 M 19.250 1356.706 C 17.277 1357.086, 17 1357.750, 17 1362.105 C 17 1366.136, 18.023 1369.089, 22.434 1377.785 C 27.577 1387.928, 31.055 1397.949, 34.136 1411.500 C 35.266 1416.470, 35.500 1455.448, 35.500 1638.500 C 35.500 1850.172, 35.422 1859.838, 33.646 1867.500 C 30.819 1879.694, 26.227 1893.453, 21.379 1904.256 C 17.888 1912.033, 17 1915.150, 17 1919.618 L 17 1925.223 20.750 1924.525 C 25.191 1923.699, 75.068 1911.690, 83 1909.536 C 86.025 1908.715, 100.739 1905.070, 115.698 1901.436 C 130.675 1897.798, 143.430 1894.187, 144.082 1893.401 C 146.347 1890.672, 144.302 1883.021, 138.974 1874.285 C 136.219 1869.768, 132.595 1861.893, 130.922 1856.785 C 124.317 1836.627, 124.796 1847.869, 124.076 1696 C 123.716 1619.825, 123.518 1557.346, 123.636 1557.157 C 124.294 1556.114, 127.325 1564.362, 131.480 1578.500 C 135.804 1593.213, 145.506 1624.285, 171.981 1708.211 C 182.243 1740.741, 188.645 1759.978, 189.489 1760.822 C 190.547 1761.880, 256.621 1754.185, 260.541 1752.547 C 262.919 1751.554, 263.870 1750.390, 264.370 1747.863 C 264.737 1746.013, 270.160 1728.300, 276.423 1708.500 C 327.278 1547.715, 326.972 1548.669, 327.983 1547.636 C 328.447 1547.161, 329.116 1549.186, 329.469 1552.136 C 329.822 1555.086, 329.687 1613.075, 329.169 1681 L 328.228 1804.500 325.537 1814.480 C 324.057 1819.968, 320.180 1830.289, 316.923 1837.414 C 311.856 1848.496, 311 1851.210, 311 1856.184 C 311 1862.843, 310.627 1862.674, 320.685 1860.583 C 331.480 1858.339, 374.592 1851.319, 410 1846.041 C 421.275 1844.360, 432.237 1842.715, 434.360 1842.386 L 438.219 1841.787 437.827 1835.618 C 437.495 1830.404, 436.879 1828.721, 433.853 1824.759 C 428.466 1817.704, 423.557 1806.717, 420.555 1795 L 417.865 1784.500 418.247 1599 C 418.586 1433.886, 418.802 1412.786, 420.214 1407 C 423.065 1395.317, 426.049 1387.655, 431.509 1378 C 436.896 1368.472, 437.444 1366.703, 437.156 1359.750 L 437 1356 377.750 1356.100 C 345.163 1356.155, 317.375 1356.501, 316 1356.870 C 313.705 1357.485, 312.504 1360.538, 301.374 1394.020 C 289.394 1430.063, 260.211 1518.906, 239.628 1582 C 233.797 1599.875, 228.618 1615.123, 228.120 1615.885 C 227.384 1617.012, 227.024 1616.914, 226.193 1615.360 C 224.675 1612.525, 201.561 1541.395, 182.532 1481 C 172.630 1449.575, 152.919 1388.515, 146.699 1370 L 142.500 1357.500 137 1356.849 C 130.979 1356.136, 22.890 1356.005, 19.250 1356.706 M 523.373 1365.979 C 497.394 1372.790, 482.542 1392.379, 484.309 1417.500 C 485.602 1435.881, 496.295 1450.328, 514 1457.613 C 523.353 1461.462, 538.883 1462.142, 548.780 1459.135 C 572.504 1451.930, 587.456 1428.024, 582.731 1404.855 C 578.412 1383.676, 564.024 1369.539, 542.662 1365.487 C 532.974 1363.649, 532.181 1363.669, 523.373 1365.979 M 1543.500 1424.404 C 1526.892 1429.679, 1517.132 1440.871, 1515.075 1457 C 1513.487 1469.447, 1512.974 1549.078, 1513.849 1647 C 1514.771 1750.077, 1514.309 1743.920, 1521.929 1754.783 C 1528.106 1763.588, 1534.428 1767.760, 1548.781 1772.500 C 1556.444 1775.030, 1558.015 1775.205, 1569.833 1774.837 C 1581.561 1774.471, 1583.078 1774.199, 1588.408 1771.502 C 1595.492 1767.918, 1601.182 1761.666, 1604.201 1754.147 L 1606.469 1748.500 1606.484 1601 L 1606.500 1453.500 1604.215 1447.847 C 1599.541 1436.287, 1591.197 1428.719, 1578.909 1424.895 C 1571.623 1422.627, 1550.037 1422.328, 1543.500 1424.404 M 776 1485.946 C 768.652 1487.345, 755.924 1491.931, 749.500 1495.496 C 741.819 1499.758, 729.764 1510.085, 724.028 1517.318 C 721.569 1520.419, 719.256 1522.629, 718.890 1522.228 C 718.523 1521.828, 716.551 1515.425, 714.508 1508 C 712.465 1500.575, 710.374 1493.713, 709.862 1492.750 C 709.001 1491.134, 706.226 1491, 673.604 1491 C 654.176 1491, 636.191 1491.286, 633.640 1491.636 L 629 1492.272 629 1497.356 C 629 1501.696, 629.724 1503.621, 633.941 1510.498 C 641.991 1523.624, 644.942 1532.199, 646.107 1545.842 C 646.727 1553.101, 646.977 1597.693, 646.762 1662.545 L 646.413 1767.500 644.134 1775.477 C 641.693 1784.017, 634.523 1799.315, 630.472 1804.626 C 628.540 1807.158, 628 1809.060, 628 1813.326 C 628 1819.175, 629.101 1820.454, 633.329 1819.518 C 634.523 1819.253, 640.675 1818.580, 647 1818.022 C 653.325 1817.464, 663.225 1816.567, 669 1816.029 C 685.278 1814.513, 735.124 1811, 740.361 1811 C 744.551 1811, 745.160 1810.709, 746.091 1808.260 C 747.677 1804.089, 746.426 1799.990, 741.411 1792.928 C 735.776 1784.994, 732.974 1779.541, 729.889 1770.500 L 727.500 1763.500 727.500 1668 C 727.500 1592.513, 727.774 1571.452, 728.809 1567.500 C 730.720 1560.200, 738.769 1550.453, 745.387 1547.423 C 756.573 1542.302, 772.858 1542.401, 781.828 1547.645 C 786.718 1550.504, 791.269 1556.986, 793.663 1564.500 C 796.194 1572.448, 797.463 1643.661, 796.184 1706 C 795.256 1751.221, 794.936 1757.348, 793.121 1764.614 C 790.520 1775.030, 787.495 1781.681, 781.125 1790.988 C 776.724 1797.417, 776 1799.148, 776 1803.238 L 776 1808 789.039 1808 C 796.210 1808, 809.597 1807.539, 818.789 1806.975 C 827.980 1806.412, 848.422 1805.602, 864.215 1805.177 C 880.009 1804.751, 893.284 1804.050, 893.715 1803.618 C 894.147 1803.186, 894.500 1800.720, 894.500 1798.136 C 894.500 1794.073, 893.846 1792.569, 889.648 1786.985 C 883.563 1778.891, 880.650 1773.167, 877.866 1763.839 C 875.700 1756.581, 875.668 1755.403, 874.938 1657 C 874.239 1562.650, 874.094 1556.898, 872.132 1545.872 C 869.582 1531.539, 867.254 1525.177, 861.117 1515.777 C 852.155 1502.049, 838.303 1492.581, 820.481 1488.002 C 811.532 1485.703, 783.970 1484.429, 776 1485.946 M 1013.500 1485.627 C 1003.455 1487.096, 987.760 1490.426, 982.564 1492.192 C 971.833 1495.837, 959.471 1502.833, 952.541 1509.184 C 947.132 1514.140, 945.126 1516.911, 941.547 1524.373 C 939.139 1529.393, 936.632 1535.975, 935.977 1539 C 935.281 1542.208, 934.565 1557.315, 934.257 1575.250 L 933.729 1606 936.215 1606 C 937.583 1606, 940.006 1605.581, 941.601 1605.069 C 943.195 1604.558, 951.475 1602.038, 960 1599.471 C 986.058 1591.625, 1000.428 1587.025, 1001.989 1586.033 C 1003.150 1585.295, 1003.612 1581.821, 1004.084 1570.293 C 1004.739 1554.274, 1005.907 1549.817, 1010.803 1544.658 C 1016.698 1538.448, 1027.807 1535.358, 1040.994 1536.262 C 1055.460 1537.254, 1064.995 1543.747, 1069.011 1555.340 C 1071.652 1562.964, 1072.770 1579.546, 1071.065 1585.807 C 1068.885 1593.813, 1057.695 1603.151, 1041.362 1610.595 C 1037.056 1612.557, 1031.276 1615.224, 1028.517 1616.522 C 1022.555 1619.327, 1009.775 1624.823, 998 1629.648 C 980.779 1636.704, 960.376 1647.203, 953.186 1652.709 C 945.468 1658.619, 936.408 1669.289, 932.414 1677.170 C 923.061 1695.628, 921.340 1731.950, 928.704 1755.500 C 933.051 1769.404, 938.222 1778.060, 947.258 1786.561 C 951.677 1790.718, 957.939 1795.455, 961.174 1797.088 C 988.667 1810.966, 1024.357 1810.899, 1052.168 1796.916 C 1058.387 1793.789, 1062.545 1790.635, 1070.041 1783.362 C 1075.414 1778.148, 1080.017 1774.247, 1080.271 1774.691 C 1080.525 1775.136, 1081.744 1778.650, 1082.980 1782.500 C 1085.312 1789.761, 1090.972 1800.940, 1093.214 1802.711 C 1093.978 1803.315, 1106.872 1803.989, 1125 1804.372 C 1141.775 1804.726, 1158.425 1805.278, 1162 1805.598 C 1170.793 1806.386, 1172.448 1805.168, 1171.467 1798.626 C 1170.921 1794.987, 1169.375 1792.035, 1164.937 1786.157 C 1158.579 1777.736, 1153.730 1766.879, 1152.140 1757.500 C 1151.541 1753.967, 1150.860 1715.520, 1150.484 1664 C 1149.726 1560.005, 1149.345 1550.905, 1145.251 1538.834 C 1141.269 1527.094, 1134.525 1516.622, 1125.549 1508.239 C 1117.170 1500.414, 1108.321 1495.400, 1096.171 1491.593 C 1080.532 1486.692, 1072.530 1485.761, 1043.500 1485.464 C 1028.650 1485.312, 1015.150 1485.386, 1013.500 1485.627 M 1339.951 1488.996 C 1323.639 1491.588, 1308.536 1502.018, 1296.252 1519.175 C 1293.171 1523.479, 1290.287 1527, 1289.844 1527 C 1289.401 1527, 1288.758 1525.763, 1288.416 1524.250 C 1286.501 1515.783, 1280.648 1494.245, 1279.857 1492.750 C 1278.997 1491.128, 1276.007 1491, 1238.965 1491 L 1199 1491 1199 1496.466 C 1199 1501.413, 1199.531 1502.746, 1204.604 1510.528 C 1207.690 1515.263, 1211.594 1523.026, 1213.296 1527.812 L 1216.384 1536.500 1217.138 1603.500 C 1218.111 1689.852, 1217.431 1750.606, 1215.372 1761.439 C 1213.371 1771.965, 1210.265 1779.336, 1204.099 1788.191 C 1198.560 1796.147, 1196.489 1803.501, 1199.162 1805.720 C 1200.457 1806.794, 1206.740 1807.270, 1256 1810.029 C 1265.625 1810.568, 1282.573 1811.745, 1293.663 1812.645 C 1304.753 1813.544, 1314.541 1814.007, 1315.413 1813.672 C 1316.528 1813.244, 1317 1811.760, 1317 1808.686 C 1317 1805.277, 1316.114 1802.939, 1312.988 1798.103 C 1307.751 1790, 1303.329 1781.179, 1300.153 1772.500 L 1297.592 1765.500 1297.232 1685.166 C 1297.017 1637.314, 1297.266 1600.923, 1297.848 1595.166 C 1299.582 1577.990, 1305.357 1567.595, 1317.185 1560.362 L 1323.500 1556.500 1335.500 1556.519 C 1346.641 1556.536, 1348.001 1556.754, 1354.500 1559.574 C 1358.350 1561.245, 1366.450 1565.542, 1372.500 1569.124 C 1387.324 1577.901, 1386.764 1577.768, 1387.515 1572.698 C 1387.857 1570.389, 1387.993 1552.684, 1387.818 1533.354 C 1387.527 1501.176, 1387.348 1498.039, 1385.700 1496.219 C 1384.710 1495.126, 1380.210 1493.001, 1375.700 1491.496 C 1369.200 1489.327, 1365.220 1488.693, 1356.500 1488.438 C 1350.450 1488.260, 1343.003 1488.512, 1339.951 1488.996 M 567.500 1491.076 C 565.850 1491.574, 545.150 1496.077, 521.501 1501.084 C 497.851 1506.091, 478.171 1510.708, 477.766 1511.344 C 475.830 1514.387, 477.746 1520.345, 483.395 1528.842 C 489.335 1537.777, 493.773 1549.063, 494.924 1558.161 C 496.256 1568.698, 497.104 1714.580, 496.052 1752.500 C 495.211 1782.856, 495.029 1784.958, 492.510 1793.416 C 490.106 1801.492, 486.452 1809.477, 479.474 1821.907 C 477.789 1824.909, 477 1827.859, 477 1831.157 L 477 1836 481.757 1836 C 484.373 1836, 498.886 1834.439, 514.007 1832.532 C 529.128 1830.625, 550.275 1828.145, 561 1827.022 C 596.907 1823.263, 595 1823.799, 595 1817.459 C 595 1812.334, 594.027 1810.019, 589.846 1805.207 C 586.096 1800.890, 581.771 1792.206, 579.035 1783.500 L 576.835 1776.500 575.929 1634.500 C 575.430 1556.400, 574.806 1491.938, 574.543 1491.250 C 573.995 1489.825, 571.829 1489.771, 567.500 1491.076 M 1062 1654.612 C 1057.875 1657.051, 1049.550 1661.561, 1043.500 1664.636 C 1022.836 1675.137, 1012.243 1683.827, 1006.383 1695.083 C 1003.788 1700.066, 1003.532 1701.557, 1003.184 1713.700 C 1002.757 1728.607, 1003.871 1733.711, 1009.103 1740.825 C 1012.927 1746.026, 1022.027 1750.502, 1030.639 1751.420 C 1046.749 1753.137, 1065.449 1743.062, 1070.004 1730.211 C 1071.960 1724.693, 1072.733 1649.962, 1070.832 1650.089 C 1070.100 1650.138, 1066.125 1652.173, 1062 1654.612 M 953 1887.672 C 948.875 1887.822, 932.225 1888.417, 916 1888.993 C 874.695 1890.458, 831.136 1893.296, 793 1897.005 C 782.275 1898.048, 765.850 1899.631, 756.500 1900.522 C 728.833 1903.160, 662.016 1911.831, 629.500 1917.005 C 587.325 1923.715, 551.457 1930.122, 531.500 1934.511 C 525.450 1935.842, 511.050 1938.935, 499.500 1941.384 C 412.909 1959.749, 315.055 1987.991, 266 2008.776 C 245.402 2017.504, 239.334 2022.372, 245.533 2025.197 C 249.533 2027.020, 269.569 2024.925, 338.500 2015.478 C 348.400 2014.121, 363.700 2012.144, 372.500 2011.085 C 381.300 2010.026, 399.300 2007.783, 412.500 2006.101 C 466.873 1999.172, 477.739 1997.859, 504.500 1994.983 C 519.900 1993.328, 537.675 1991.326, 544 1990.535 C 550.325 1989.743, 565.400 1988.154, 577.500 1987.004 C 589.600 1985.854, 608.500 1984.051, 619.500 1982.997 C 640.126 1981.020, 713.133 1974.835, 737 1973.042 C 781.692 1969.685, 814.647 1967.914, 881.500 1965.276 C 944.394 1962.794, 1105.295 1962.825, 1163.500 1965.331 C 1230.025 1968.194, 1283.229 1971.263, 1322.500 1974.503 C 1332.400 1975.320, 1352.650 1976.898, 1367.500 1978.010 C 1382.350 1979.122, 1398.325 1980.463, 1403 1980.990 C 1407.675 1981.517, 1423.650 1983.100, 1438.500 1984.509 C 1453.350 1985.918, 1470.900 1987.724, 1477.500 1988.522 C 1484.100 1989.320, 1497.825 1990.865, 1508 1991.956 C 1543.043 1995.712, 1597.720 2002.140, 1631.789 2006.508 C 1668.717 2011.244, 1682.590 2013.053, 1697 2015.013 C 1704.975 2016.097, 1720.725 2018.143, 1732 2019.560 C 1743.275 2020.977, 1757.225 2022.741, 1763 2023.481 C 1787.361 2026.600, 1797 2026.390, 1797 2022.738 C 1797 2018.897, 1777.500 2008.717, 1754.239 2000.415 C 1739.487 1995.149, 1708.388 1984.942, 1698 1981.956 C 1693.875 1980.770, 1684.200 1977.856, 1676.500 1975.481 C 1647.223 1966.449, 1600.994 1954.624, 1559.500 1945.554 C 1552.900 1944.111, 1539.400 1941.127, 1529.500 1938.922 C 1481.929 1928.330, 1376.875 1910.742, 1336 1906.528 C 1332.425 1906.160, 1318.925 1904.564, 1306 1902.982 C 1293.075 1901.400, 1278.675 1899.831, 1274 1899.495 C 1269.325 1899.160, 1261.450 1898.458, 1256.500 1897.935 C 1218.045 1893.871, 1154.005 1889.966, 1093.500 1887.994 C 1067.839 1887.158, 973.003 1886.940, 953 1887.672" stroke="none" fill="#3c0424" fill-rule="evenodd"/></svg>