<svg xmlns="http://www.w3.org/2000/svg" width="2040" height="2040" viewBox="0 0 2040 2040" version="1.1"><path d="M 1480.958 29.334 C 1479.629 29.996, 1477.532 32.329, 1476.297 34.519 C 1472.451 41.338, 1465.509 64.248, 1457.516 96.500 C 1451.911 119.112, 1449.152 128.500, 1447.318 131.196 C 1444.286 135.652, 1426.395 152.311, 1412.087 164 C 1368.101 199.935, 1358.435 210.342, 1345.892 235.264 C 1336.167 254.586, 1331.475 271.435, 1330.373 291 C 1329.619 304.389, 1331.214 320.682, 1334.130 329.367 C 1335.213 332.593, 1335.965 335.339, 1335.800 335.467 C 1335.635 335.596, 1332.665 337.193, 1329.199 339.017 C 1321.010 343.326, 1315.444 348.820, 1312.151 355.845 C 1308.571 363.482, 1308.440 376.546, 1311.857 385.202 C 1317.580 399.699, 1332.356 408.682, 1353.500 410.516 C 1365.660 411.571, 1365 411.108, 1365 418.582 C 1365 422.181, 1364.562 431.510, 1364.027 439.313 C 1362.398 463.057, 1360.091 501.933, 1358.496 532.500 C 1355.478 590.366, 1351.006 685.658, 1351.003 692.180 L 1351 698.861 1361.171 708.180 C 1366.764 713.306, 1380.015 725.712, 1390.617 735.750 C 1401.218 745.787, 1410.302 754, 1410.803 754 C 1411.939 754, 1412.512 746.294, 1415.002 697.500 C 1416.097 676.050, 1417.438 651.975, 1417.982 644 C 1421.502 592.411, 1427.832 482.267, 1429.989 435.076 C 1430.553 422.743, 1431.276 412.393, 1431.596 412.076 C 1432.439 411.242, 1530.362 411.983, 1531.220 412.830 C 1532.308 413.903, 1535.619 484.823, 1539.514 590.500 C 1545.487 752.554, 1548.761 833.116, 1552.987 922 C 1554.073 944.825, 1555.659 983.300, 1556.512 1007.500 C 1557.366 1031.700, 1558.955 1069.500, 1560.043 1091.500 C 1561.132 1113.500, 1562.314 1140.163, 1562.670 1150.750 L 1563.317 1170 1558.408 1169.952 C 1555.709 1169.926, 1548.775 1169.273, 1543 1168.502 C 1537.225 1167.731, 1522.600 1165.955, 1510.500 1164.556 C 1498.400 1163.157, 1482.650 1161.333, 1475.500 1160.502 C 1460.185 1158.724, 1434.867 1156.458, 1412.500 1154.864 C 1403.700 1154.237, 1396.160 1153.424, 1395.745 1153.057 C 1394.953 1152.357, 1402.800 1140.400, 1413.501 1126 C 1428.668 1105.590, 1442.401 1070.491, 1447.910 1038.055 C 1455.633 992.583, 1452.105 951.215, 1436.377 902.811 C 1425.221 868.480, 1414.467 847.002, 1393.354 816.890 C 1370.080 783.696, 1348.249 761.432, 1309.500 731.375 C 1277.093 706.238, 1264.998 698.163, 1184.500 647.928 C 1158.961 631.991, 1107.110 595.982, 1090.408 582.586 C 1070.351 566.498, 1065.165 561.837, 1049.279 545.622 C 1033.073 529.079, 1021.712 515.144, 1013.065 501.201 C 1006.681 490.909, 992 461.577, 992 459.116 C 992 457.496, 993.399 456.955, 1001.250 455.537 C 1014.060 453.224, 1018.303 451.872, 1028.042 447.001 C 1046.185 437.926, 1056.538 429.003, 1067.119 413.323 C 1072.068 405.989, 1078.127 393.986, 1079.270 389.250 C 1080.092 385.844, 1077.652 386.387, 1069.584 391.408 C 1054.065 401.065, 1044.565 403.928, 1025.500 404.691 C 1009.893 405.316, 1004.567 404.416, 991.850 399.004 C 981.496 394.598, 972.352 388.137, 963.798 379.184 C 954.428 369.377, 948.889 360.126, 945.424 348.500 C 943.136 340.821, 942.724 337.518, 942.622 326 C 942.484 310.509, 943.861 303.954, 949.697 292.303 C 956.829 278.065, 970.916 264.377, 986.663 256.385 C 997.640 250.813, 995.739 249.266, 977.708 249.100 C 947.873 248.824, 920.801 262.501, 903.407 286.638 C 897.611 294.682, 889.824 311.344, 886.881 322 C 884.832 329.420, 884.539 332.660, 884.575 347.500 C 884.613 362.697, 884.901 365.561, 887.294 374.500 C 890.711 387.264, 899.906 406.126, 907.831 416.627 C 916.960 428.724, 933.049 443.626, 942.538 448.772 C 946.870 451.122, 952.098 453.548, 954.155 454.165 C 956.212 454.781, 958.103 455.827, 958.357 456.489 C 959.453 459.345, 946.165 485.505, 935.493 501.500 C 928.475 512.018, 910.618 533.461, 900.518 543.500 C 890.653 553.304, 862.523 576.865, 843 591.675 C 826.272 604.364, 800.698 622.178, 773.500 640.085 C 754.249 652.760, 751.199 654.727, 715.500 677.503 C 658.740 713.716, 626.936 737.494, 599.143 764.500 C 583.066 780.122, 572.989 791.731, 560.082 809.500 C 549.940 823.464, 534.788 847.439, 529.747 857.500 C 505.672 905.556, 494.999 945.322, 495.001 986.958 C 495.003 1022.276, 500.822 1052.498, 513.675 1083.940 C 523.554 1108.108, 530.091 1119.282, 547.860 1142.380 C 552.887 1148.914, 557 1154.599, 557 1155.013 C 557 1156.077, 553.187 1156.970, 548.582 1156.986 C 546.427 1156.994, 541.927 1157.430, 538.582 1157.955 C 535.237 1158.480, 525.975 1159.640, 518 1160.532 C 478.595 1164.942, 440.912 1170.232, 396.500 1177.587 C 376.442 1180.909, 367.107 1182.554, 342.500 1187.099 C 324.651 1190.397, 262.177 1202.969, 253.500 1205.010 C 249.100 1206.045, 239.425 1208.282, 232 1209.981 C 191.348 1219.284, 175.959 1223.196, 141.500 1232.989 C 104.724 1243.440, 57.143 1261.234, 44.742 1269.173 C 39.796 1272.339, 37.776 1276.183, 39.932 1278.323 C 41.971 1280.346, 60.664 1279.446, 95 1275.673 C 161.320 1268.386, 167.497 1267.741, 216.500 1262.997 C 233.550 1261.346, 258.525 1258.898, 272 1257.557 C 285.475 1256.217, 307.300 1254.182, 320.500 1253.036 C 333.700 1251.889, 352.150 1250.282, 361.500 1249.463 C 370.850 1248.644, 384.350 1247.524, 391.500 1246.974 C 398.650 1246.424, 412.150 1245.300, 421.500 1244.477 C 455.737 1241.460, 547.962 1235.106, 610 1231.489 C 624.025 1230.671, 646.075 1229.340, 659 1228.530 C 705.416 1225.624, 797.465 1221.495, 853.500 1219.807 C 907.675 1218.174, 1117.221 1218.159, 1171 1219.784 C 1271.082 1222.807, 1388.919 1228.855, 1486.500 1235.977 C 1564.820 1241.693, 1584.499 1243.229, 1608.500 1245.496 C 1617.300 1246.327, 1641.600 1248.361, 1662.500 1250.016 C 1683.400 1251.671, 1704.775 1253.449, 1710 1253.967 C 1727.878 1255.739, 1762.492 1259.091, 1783 1261.037 C 1794.275 1262.106, 1807.550 1263.441, 1812.500 1264.003 C 1825.009 1265.422, 1868.173 1269.680, 1888 1271.451 C 1897.075 1272.261, 1917.550 1274.313, 1933.500 1276.011 C 1975.679 1280.500, 1989.926 1281.485, 1993.276 1280.142 C 1997.987 1278.254, 1997.861 1276.103, 1992.771 1271.495 C 1979.684 1259.646, 1893.170 1231.495, 1825.500 1217.065 C 1817.800 1215.423, 1802.050 1212.014, 1790.500 1209.489 C 1766.223 1204.183, 1722.084 1195.462, 1697.500 1191.115 C 1665.336 1185.429, 1648.488 1182.631, 1643.009 1182.066 C 1638.400 1181.591, 1637.324 1181.093, 1636.308 1178.967 C 1635.572 1177.426, 1634.486 1164.498, 1633.534 1145.967 C 1632.674 1129.210, 1631.303 1103.350, 1630.489 1088.500 C 1629.674 1073.650, 1627.883 1038.100, 1626.508 1009.500 C 1625.132 980.900, 1623.545 950.300, 1622.980 941.500 C 1621.488 918.243, 1614.392 773.472, 1612.001 717.500 C 1610.874 691.100, 1609.062 649.925, 1607.974 626 C 1606.887 602.075, 1605.323 566.862, 1604.499 547.750 C 1603.674 528.638, 1602.315 497.137, 1601.478 477.750 C 1600.641 458.363, 1599.671 435.413, 1599.321 426.750 L 1598.687 411 1605.093 410.987 C 1613.829 410.969, 1628.469 407.809, 1634.887 404.557 C 1641.455 401.229, 1648.562 394.779, 1651.062 389.878 C 1655.228 381.711, 1655.654 362.996, 1651.841 355.634 C 1649.167 350.472, 1643.376 344.718, 1637.102 340.991 L 1630.323 336.964 1631.263 332.232 C 1631.780 329.629, 1632.408 317.600, 1632.660 305.500 C 1633.116 283.584, 1633.106 283.454, 1630.079 271.500 C 1623.035 243.677, 1602.172 210.077, 1576.367 184.993 C 1563.295 172.286, 1538.920 150.626, 1529.876 143.678 C 1527.139 141.576, 1522.278 137.301, 1519.073 134.178 L 1513.245 128.500 1510.545 115 C 1506.898 96.765, 1497.486 57.692, 1493.924 46 C 1489.476 31.398, 1485.938 26.851, 1480.958 29.334 M 1466.500 196.134 C 1406.623 236.673, 1388.880 259.812, 1388.771 297.500 C 1388.741 308.085, 1391.350 329.479, 1393.154 333.439 C 1393.804 334.865, 1395.417 336.033, 1397.239 336.398 C 1398.895 336.729, 1437.119 337, 1482.181 337 L 1564.112 337 1565.963 332.750 C 1570.308 322.769, 1572.341 296.856, 1569.939 282.057 C 1568.627 273.970, 1563.391 259.910, 1558.917 252.457 C 1554.587 245.245, 1544.770 234.569, 1535.610 227.110 C 1517.842 212.643, 1482.532 187.992, 1479.597 188.005 C 1478.994 188.008, 1473.100 191.666, 1466.500 196.134 M 957.363 583.250 C 943.296 601.744, 912.941 632.720, 890.786 651.188 C 864.123 673.414, 832.851 695.384, 780.500 728.668 C 706.548 775.687, 674.676 799.187, 646.500 827.473 C 624.531 849.526, 606.492 873.137, 596.618 892.760 C 583.144 919.537, 576.442 942.705, 575.026 967.398 C 572.198 1016.730, 582.618 1058.070, 607.454 1096.058 C 613.414 1105.174, 628.209 1123.189, 634.859 1129.427 C 638.401 1132.750, 640.430 1132.179, 637.281 1128.746 C 626.719 1117.232, 613.385 1084.566, 609.873 1061.604 C 605.668 1034.104, 605.222 1022.395, 607.537 1000.222 C 610.599 970.888, 616.885 949.450, 630.182 923 C 642.346 898.802, 648.715 890.257, 671.980 866.921 C 698.707 840.113, 712.071 830.001, 784.802 781.556 C 838.437 745.831, 865.525 724.586, 895.086 695.062 C 914.863 675.310, 922.129 666.756, 932.331 651.211 C 945.945 630.470, 954.195 613.228, 959.991 593.407 C 965.608 574.201, 965.262 572.865, 957.363 583.250 M 1527.775 1344.018 C 1486.091 1348.782, 1457.926 1361.831, 1442.418 1383.562 C 1436.684 1391.599, 1430.732 1404.352, 1427.979 1414.500 C 1424.522 1427.245, 1424.125 1445.833, 1424.060 1597.724 L 1424 1738.949 1426.902 1750.224 C 1431.555 1768.298, 1436.475 1778.467, 1445.681 1789.037 C 1463.639 1809.655, 1480.499 1819.364, 1513.310 1827.982 C 1542.954 1835.768, 1589.538 1840.494, 1612.603 1838.057 C 1640.672 1835.090, 1659.882 1826.165, 1671.668 1810.616 C 1677.258 1803.241, 1684.202 1788.899, 1686.491 1780 C 1689.692 1767.555, 1690.067 1745.124, 1689.728 1586.500 C 1689.420 1442.240, 1689.253 1428.932, 1687.676 1422.500 C 1681.502 1397.313, 1671.546 1380.371, 1656.184 1368.903 C 1647.335 1362.298, 1629.701 1353.721, 1618.380 1350.515 C 1599.810 1345.256, 1588.469 1343.867, 1561 1343.487 C 1546.975 1343.294, 1532.024 1343.533, 1527.775 1344.018 M 1851 1345.006 C 1843.025 1345.976, 1832.900 1347.531, 1828.500 1348.461 C 1789.277 1356.750, 1765.079 1378.765, 1757.012 1413.500 C 1753.211 1429.867, 1752.499 1440.995, 1752.534 1483.500 C 1752.567 1523.721, 1752.617 1524.728, 1755.144 1536.500 C 1757.934 1549.495, 1762.355 1561.690, 1767.041 1569.316 C 1768.668 1571.965, 1770 1574.481, 1770 1574.907 C 1770 1576.317, 1789.344 1596.816, 1799 1605.637 C 1808.101 1613.952, 1820.243 1623.879, 1832 1632.617 C 1835.025 1634.865, 1842.900 1640.685, 1849.500 1645.551 C 1864.564 1656.657, 1890.128 1677.177, 1899.739 1685.878 C 1914.640 1699.369, 1922.118 1711.521, 1925.672 1728.016 C 1927.193 1735.073, 1927.500 1741.124, 1927.500 1764 C 1927.500 1792.621, 1926.766 1799.567, 1922.943 1807.095 C 1920.372 1812.158, 1915.134 1816.428, 1908.332 1819.004 C 1900.929 1821.809, 1890.601 1821.302, 1877.522 1817.492 C 1858.609 1811.983, 1846.823 1802.009, 1841.147 1786.712 C 1839.140 1781.303, 1839 1779.101, 1839 1752.970 L 1839 1725.015 1835.946 1722.258 C 1834.267 1720.741, 1831.659 1718.818, 1830.150 1717.985 C 1827.126 1716.315, 1825.648 1715.403, 1799.227 1698.908 C 1759.098 1673.855, 1759.705 1674.169, 1754.186 1675.647 L 1751.872 1676.267 1752.285 1734.883 C 1752.730 1798.075, 1752.646 1797.001, 1758.425 1813.842 C 1759.810 1817.881, 1763.494 1825.981, 1766.612 1831.842 C 1771.360 1840.769, 1773.773 1843.973, 1781.471 1851.574 C 1795.571 1865.495, 1810.050 1874.357, 1835 1884.338 C 1864.698 1896.219, 1913.283 1906.066, 1941.702 1905.965 C 1963.325 1905.888, 1978.722 1900.284, 1991.031 1888.012 C 2002.203 1876.873, 2010.460 1857.730, 2014.113 1834.500 C 2015.029 1828.674, 2015.333 1811.008, 2015.230 1769.500 C 2015.098 1716.257, 2014.951 1711.775, 2013.004 1701.500 C 2010.205 1686.734, 2007.509 1678.076, 2002.726 1668.500 C 1990.726 1644.473, 1977.073 1631.224, 1920.500 1588.700 C 1905.100 1577.125, 1889.350 1565.178, 1885.500 1562.152 C 1854.387 1537.698, 1843.940 1524.466, 1840.359 1504.972 C 1838.467 1494.674, 1838.194 1463.768, 1839.904 1453.500 C 1842.217 1439.609, 1849.804 1429.146, 1860.582 1424.984 C 1867.928 1422.147, 1887.586 1421.068, 1897.257 1422.971 C 1912.645 1425.998, 1922.125 1435.067, 1924.518 1449.048 C 1924.937 1451.497, 1925.554 1464.721, 1925.890 1478.435 L 1926.500 1503.370 1936.500 1509.321 C 1942 1512.594, 1951 1517.970, 1956.500 1521.268 C 1962 1524.565, 1968.525 1528.405, 1971 1529.800 C 1973.475 1531.196, 1981.778 1536.086, 1989.451 1540.669 C 1997.124 1545.251, 2003.901 1549, 2004.510 1549 C 2005.119 1549, 2006.470 1548.377, 2007.512 1547.615 C 2009.334 1546.283, 2009.400 1544.149, 2009.249 1491.365 C 2009.081 1432.329, 2008.332 1418.759, 2004.432 1404 C 1997.278 1376.928, 1974.367 1356.547, 1942.772 1349.148 C 1916.589 1343.017, 1880.677 1341.396, 1851 1345.006 M 39.262 1348.677 C 25.074 1349.053, 25.022 1349.063, 24.402 1351.534 C 23.384 1355.592, 24.919 1361.021, 29.484 1369.500 C 34.702 1379.192, 38.402 1389.797, 40.894 1402.209 C 42.619 1410.800, 42.803 1419.340, 43.328 1515.500 C 43.640 1572.700, 43.518 1671.700, 43.058 1735.500 L 42.220 1851.500 39.682 1861.500 C 36.610 1873.607, 32.907 1884.082, 28.310 1893.670 C 24.121 1902.406, 22.750 1911.583, 25.477 1912.629 C 26.447 1913.002, 38.447 1910.558, 52.365 1907.153 C 107.527 1893.659, 146.610 1884.035, 148.665 1883.439 C 153.633 1881.998, 152.333 1873.665, 145.338 1862.101 C 140.768 1854.546, 136.029 1841.928, 133.323 1830.108 C 131.375 1821.598, 131.090 1803.139, 130.709 1660.668 C 130.485 1577.325, 130.698 1548.235, 131.524 1549.364 C 132.139 1550.205, 134.575 1557.555, 136.936 1565.697 C 142.753 1585.750, 187.797 1728.781, 193.033 1743.827 C 194.244 1747.306, 195.766 1750.357, 196.415 1750.606 C 197.063 1750.855, 209.273 1749.700, 223.547 1748.041 C 269.969 1742.645, 269.188 1742.832, 270.381 1736.818 C 270.743 1734.993, 276.396 1716.625, 282.944 1696 C 289.492 1675.375, 300.785 1639.600, 308.041 1616.500 C 315.297 1593.400, 322.048 1572.250, 323.044 1569.500 C 324.040 1566.750, 326.745 1558.425, 329.056 1551 C 332.721 1539.221, 333.378 1537.819, 334.210 1540 C 334.808 1541.569, 334.921 1587.747, 334.514 1664 C 333.997 1760.954, 333.583 1787.229, 332.466 1794.058 C 330.621 1805.343, 326.194 1818.662, 320.566 1829.869 C 316.629 1837.707, 316 1839.805, 316 1845.094 L 316 1851.227 318.750 1850.713 C 332.580 1848.127, 370.456 1841.906, 402.457 1836.965 C 425.783 1833.362, 441.748 1830.457, 442.247 1829.724 C 443.962 1827.202, 441.968 1818.725, 438.560 1814.051 C 433.211 1806.716, 428.422 1796.212, 425.616 1785.661 L 423 1775.822 423.018 1596.161 C 423.028 1492.721, 423.430 1412.755, 423.964 1407.672 C 425.262 1395.337, 429.903 1381.294, 436.465 1369.842 C 441.367 1361.288, 442 1359.544, 442 1354.592 L 442 1349 381.122 1349 C 333.624 1349, 320.024 1349.275, 319.238 1350.250 C 318.264 1351.459, 293.108 1426.919, 264.150 1515.500 C 256.418 1539.150, 246.573 1569.266, 242.271 1582.425 C 237.969 1595.584, 233.929 1606.524, 233.293 1606.736 C 232.564 1606.979, 228.807 1596.840, 223.130 1579.311 C 211.371 1542.994, 190.761 1478.636, 183.002 1454 C 179.624 1443.275, 173.552 1424.375, 169.508 1412 C 165.465 1399.625, 159.378 1380.950, 155.982 1370.500 C 152.586 1360.050, 149.210 1350.874, 148.478 1350.110 C 147.385 1348.968, 138.794 1348.682, 100.324 1348.510 C 74.571 1348.394, 47.093 1348.470, 39.262 1348.677 M 522.468 1359.771 C 505.153 1365.654, 493.737 1377.394, 489.495 1393.680 C 485.357 1409.568, 489.267 1425.324, 500.402 1437.628 C 509.590 1447.782, 522.004 1453, 536.971 1453 C 547.557 1453, 555.610 1450.993, 562.922 1446.534 C 578.442 1437.068, 587 1422.510, 587 1405.576 C 587 1372.271, 554.201 1348.990, 522.468 1359.771 M 1541.698 1416.096 C 1529.829 1418.889, 1520.571 1426.042, 1515.472 1436.360 L 1511.887 1443.612 1510.864 1463.556 C 1509.408 1491.929, 1510.359 1722.555, 1511.963 1730 C 1515.171 1744.895, 1527.505 1756.593, 1545.608 1761.912 C 1555.801 1764.906, 1573.589 1764.874, 1581.681 1761.846 C 1589.476 1758.930, 1596.904 1751.478, 1599.999 1743.469 L 1602.306 1737.500 1602.737 1607 C 1602.980 1533.650, 1602.764 1469.055, 1602.245 1459.500 C 1601.371 1443.412, 1601.157 1442.176, 1598.254 1436.463 C 1593.138 1426.394, 1584.351 1419.629, 1572.320 1416.495 C 1566.004 1414.850, 1547.990 1414.615, 1541.698 1416.096 M 1017 1476.654 C 991.520 1480.538, 983.629 1482.692, 969.214 1489.699 C 953.300 1497.435, 943.441 1508.548, 938.436 1524.392 C 936.177 1531.544, 935.795 1535.033, 935.012 1555.727 C 933.946 1583.896, 934.545 1596.998, 936.898 1597.004 C 939.993 1597.013, 996.344 1580.032, 1001 1577.688 C 1003.442 1576.459, 1003.518 1576.080, 1004.271 1561.465 C 1004.950 1548.303, 1005.356 1545.856, 1007.644 1541.150 C 1012.210 1531.759, 1021.805 1527.565, 1038.500 1527.665 C 1059.559 1527.790, 1069.045 1537.235, 1071.544 1560.564 C 1073.094 1575.043, 1069.858 1583.054, 1059.283 1590.912 C 1050.367 1597.538, 1041.152 1601.902, 989 1624.195 C 972.385 1631.298, 958.691 1638.756, 952.254 1644.209 C 939.517 1654.998, 931.921 1666.923, 927.865 1682.500 C 925.765 1690.567, 925.527 1693.626, 925.572 1712 C 925.631 1735.935, 926.858 1742.160, 934.636 1757.957 C 945.547 1780.117, 965.872 1792.878, 995.419 1796.119 C 1013.433 1798.095, 1030.150 1795.742, 1046.522 1788.927 C 1056.625 1784.721, 1062.226 1780.833, 1071.232 1771.776 C 1075.485 1767.499, 1079.139 1764, 1079.352 1764 C 1079.566 1764, 1080.976 1767.487, 1082.486 1771.750 C 1085.537 1780.361, 1089.007 1787.406, 1091.782 1790.621 C 1093.549 1792.670, 1094.885 1792.782, 1130.899 1793.916 C 1160.820 1794.859, 1168.486 1794.841, 1169.707 1793.829 C 1170.853 1792.877, 1171.085 1791.365, 1170.649 1787.686 C 1170.182 1783.744, 1169.098 1781.624, 1165.008 1776.653 C 1159.528 1769.994, 1155.790 1762.934, 1152.751 1753.500 C 1150.928 1747.844, 1150.769 1742.429, 1149.971 1659 C 1148.759 1532.225, 1149.184 1538.436, 1140.494 1520.412 C 1135.421 1509.889, 1125.590 1498.563, 1115.931 1492.113 C 1103.770 1483.992, 1085.945 1478.860, 1063.605 1477.047 C 1051.463 1476.061, 1022.488 1475.817, 1017 1476.654 M 770.219 1479.555 C 760.510 1482.425, 749.712 1487.573, 742.883 1492.586 C 740.211 1494.547, 734.264 1500.183, 729.667 1505.108 L 721.310 1514.064 719.062 1506.282 C 717.825 1502.002, 715.941 1495.481, 714.876 1491.791 C 713.811 1488.102, 712.246 1484.389, 711.399 1483.541 C 710.073 1482.216, 705.627 1482.015, 679.679 1482.106 C 663.080 1482.164, 645.450 1482.502, 640.500 1482.856 L 631.500 1483.500 631.728 1488.858 C 631.915 1493.280, 632.736 1495.437, 636.421 1501.197 C 641.725 1509.487, 646.609 1520.835, 648.288 1528.772 C 649.195 1533.061, 649.500 1562.263, 649.500 1645 C 649.500 1749.278, 649.396 1755.894, 647.652 1762.500 C 645.561 1770.421, 637.207 1788.729, 633.415 1793.700 C 631.284 1796.494, 630.946 1797.875, 631.200 1802.749 L 631.500 1808.500 635.500 1808.287 C 637.700 1808.169, 644.900 1807.593, 651.500 1807.006 C 678.024 1804.648, 710.489 1802.090, 728 1800.977 C 748.962 1799.646, 749.471 1799.433, 748.708 1792.307 C 748.420 1789.623, 747.150 1786.715, 745.179 1784.226 C 740.443 1778.246, 734.374 1766.259, 732.155 1758.500 C 730.257 1751.864, 730.126 1747.656, 729.635 1677.500 C 729.015 1588.943, 729.739 1560.388, 732.755 1554.488 C 735.645 1548.836, 742.607 1541.238, 746.872 1539.081 C 755.004 1534.969, 769.579 1533.795, 778.740 1536.515 C 786.018 1538.677, 792.242 1545.780, 795.256 1555.365 L 797.500 1562.500 797.500 1652 C 797.500 1748.217, 797.530 1747.578, 792.248 1762.500 C 790.884 1766.350, 787.121 1773.531, 783.885 1778.458 C 778.770 1786.244, 778 1788.044, 778 1792.208 L 778 1797 790.750 1797.006 C 797.763 1797.009, 814.750 1796.536, 828.500 1795.954 C 842.250 1795.373, 862.950 1794.583, 874.500 1794.199 L 895.500 1793.500 895.796 1788.442 C 896.070 1783.739, 895.736 1782.899, 891.012 1776.442 C 884.555 1767.618, 881.583 1761.526, 878.843 1751.500 C 876.688 1743.612, 876.647 1742.110, 875.954 1644 C 875.285 1549.232, 875.154 1544.024, 873.206 1534.500 C 872.081 1529, 870.562 1522.925, 869.831 1521 C 864.452 1506.851, 852.668 1493.135, 840.500 1486.858 C 825.420 1479.079, 815.432 1477.021, 793 1477.073 C 780.599 1477.102, 777.301 1477.461, 770.219 1479.555 M 1341.156 1480.028 C 1323.737 1482.420, 1308.295 1491.709, 1297.541 1506.264 C 1295.007 1509.694, 1291.760 1514.018, 1290.326 1515.873 L 1287.719 1519.246 1283.331 1501.895 C 1280.918 1492.352, 1278.484 1484.084, 1277.923 1483.522 C 1277.262 1482.860, 1262.899 1482.500, 1237.201 1482.500 L 1197.500 1482.500 1197.553 1488 C 1197.601 1492.966, 1198.156 1494.335, 1203.276 1502.111 C 1206.762 1507.407, 1210.207 1514.338, 1212.223 1520.111 L 1215.500 1529.500 1215.500 1638 C 1215.500 1741.158, 1215.407 1746.869, 1213.607 1754 C 1211.370 1762.858, 1206.143 1773.808, 1201.312 1779.757 C 1198.644 1783.042, 1197.728 1785.239, 1197.301 1789.371 C 1196.935 1792.919, 1197.142 1794.970, 1197.916 1795.448 C 1199.125 1796.195, 1211.891 1797.121, 1247 1799.007 C 1258.275 1799.613, 1275.821 1800.759, 1285.990 1801.554 C 1311.465 1803.546, 1314.710 1803.491, 1315.484 1801.049 C 1316.397 1798.175, 1314.444 1792.116, 1310.956 1787 C 1306.255 1780.104, 1301.250 1769.829, 1298.523 1761.475 L 1296.058 1753.921 1295.779 1668.711 C 1295.550 1598.930, 1295.750 1582.504, 1296.878 1578 C 1300.092 1565.175, 1307.213 1555.460, 1317.051 1550.474 C 1322.088 1547.922, 1322.855 1547.824, 1334.907 1548.202 C 1349.306 1548.654, 1353.235 1549.938, 1368.071 1559.044 C 1380.412 1566.617, 1383.759 1568.198, 1384.595 1566.846 C 1385.661 1565.122, 1386.375 1515.156, 1385.527 1501.596 C 1384.632 1487.268, 1384.190 1486.631, 1372.500 1482.803 C 1363.364 1479.812, 1350.819 1478.701, 1341.156 1480.028 M 570.500 1482.562 C 567.750 1483.317, 547.050 1487.828, 524.500 1492.586 C 495.747 1498.652, 483.106 1501.724, 482.180 1502.868 C 480.152 1505.375, 481.609 1511.695, 485.418 1516.919 C 487.256 1519.439, 490.394 1524.763, 492.392 1528.751 C 499.447 1542.828, 499.262 1540.856, 499.913 1609 C 500.236 1642.825, 500.227 1693.450, 499.894 1721.500 C 499.317 1770.030, 499.181 1772.887, 497.076 1780.500 C 494.999 1788.012, 489.329 1800.785, 483.544 1810.985 C 481.802 1814.055, 481 1816.972, 481 1820.235 L 481 1825 485.913 1825 C 488.615 1825, 503.352 1823.437, 518.663 1821.527 C 533.973 1819.617, 555.275 1817.141, 566 1816.024 C 598.618 1812.628, 599.577 1812.351, 598.527 1806.625 C 598.237 1805.044, 598 1803.007, 598 1802.098 C 598 1801.190, 596.153 1797.988, 593.895 1794.984 C 588.566 1787.891, 585.806 1782.333, 582.732 1772.500 L 580.230 1764.500 579.499 1627.517 C 579.096 1552.176, 578.482 1488.538, 578.133 1486.100 C 577.784 1483.661, 577.049 1481.559, 576.500 1481.427 C 575.950 1481.296, 573.250 1481.806, 570.500 1482.562 M 1065.887 1642.957 C 1063.350 1644.539, 1053.764 1649.747, 1044.584 1654.531 C 1019.937 1667.375, 1012.259 1673.797, 1006.277 1686.570 C 1003.662 1692.155, 1003.502 1693.286, 1003.542 1706 C 1003.588 1720.980, 1004.793 1725.277, 1010.894 1732.227 C 1015.971 1738.009, 1022.818 1740.454, 1034 1740.479 C 1046.589 1740.507, 1053.894 1737.844, 1062.116 1730.232 C 1070.811 1722.182, 1071.093 1720.832, 1071.661 1684.500 C 1071.920 1668, 1071.764 1651.256, 1071.316 1647.290 L 1070.500 1640.080 1065.887 1642.957 M 951.500 1876.080 C 905.333 1877.216, 845.945 1880.531, 809 1884.033 C 762.603 1888.431, 733.059 1891.520, 713 1894.071 C 678.745 1898.428, 640.121 1903.786, 627.500 1905.932 C 621.450 1906.961, 611.775 1908.562, 606 1909.491 C 589.030 1912.219, 558.582 1917.799, 543.500 1920.945 C 508.310 1928.286, 495.265 1931.103, 478.500 1934.985 C 468.600 1937.277, 458.700 1939.524, 456.500 1939.977 C 436.853 1944.024, 387.116 1957.624, 348.902 1969.400 C 297.188 1985.334, 262.868 1998.339, 251.695 2006.233 C 248.039 2008.816, 248.393 2012.071, 252.447 2013.149 C 255.854 2014.055, 277.280 2012.136, 304 2008.532 C 314.175 2007.160, 335.100 2004.422, 350.500 2002.449 C 381.527 1998.474, 418.726 1993.570, 429.500 1992.035 C 433.350 1991.486, 441.225 1990.565, 447 1989.987 C 452.775 1989.409, 462.225 1988.286, 468 1987.490 C 473.775 1986.695, 489.300 1984.906, 502.500 1983.515 C 515.700 1982.124, 533.700 1980.102, 542.500 1979.021 C 551.300 1977.940, 572.450 1975.688, 589.500 1974.017 C 606.550 1972.346, 627.250 1970.316, 635.500 1969.506 C 725.077 1960.714, 831.764 1954.507, 938.500 1951.879 C 988.509 1950.647, 1106.895 1951.253, 1148 1952.950 C 1223.441 1956.065, 1274.763 1958.942, 1327.500 1963.010 C 1334.100 1963.519, 1348.725 1964.617, 1360 1965.450 C 1371.275 1966.282, 1387.025 1967.642, 1395 1968.472 C 1402.975 1969.302, 1421.650 1971.128, 1436.500 1972.531 C 1451.350 1973.933, 1470.700 1975.947, 1479.500 1977.006 C 1488.300 1978.065, 1500 1979.389, 1505.500 1979.949 C 1514.583 1980.874, 1532.864 1982.968, 1584.500 1988.997 C 1594.400 1990.153, 1616 1992.878, 1632.500 1995.052 C 1649 1997.227, 1668.350 1999.689, 1675.500 2000.524 C 1682.650 2001.358, 1693.225 2002.716, 1699 2003.541 C 1704.775 2004.367, 1714.900 2005.681, 1721.500 2006.463 C 1728.100 2007.244, 1740.250 2008.800, 1748.500 2009.920 C 1774.713 2013.480, 1785.776 2014.167, 1789.107 2012.445 C 1790.698 2011.622, 1792 2010.564, 1792 2010.094 C 1792 2008.037, 1780.503 2000.897, 1769 1995.809 C 1750.263 1987.522, 1706.343 1973.076, 1652.500 1957.490 C 1629.914 1950.952, 1582.500 1939.313, 1549 1932.082 C 1533.325 1928.698, 1516.675 1925.048, 1512 1923.971 C 1507.325 1922.893, 1496.075 1920.649, 1487 1918.985 C 1477.925 1917.320, 1469.825 1915.760, 1469 1915.519 C 1465.810 1914.584, 1406.449 1904.807, 1386.500 1901.930 C 1323.165 1892.797, 1240.480 1883.914, 1191.500 1880.980 C 1101.505 1875.589, 1030.398 1874.138, 951.500 1876.080" stroke="none" fill="#fbfbfb" fill-rule="evenodd"/></svg>